<svg xmlns="http://www.w3.org/2000/svg" viewBox="0 0 471.7 471.7"><defs><style>.cls-1{fill:#fff;}</style></defs><g id="Capa_1_copy" data-name="Capa 1 copy"><path class="cls-1" d="M433.6,67a130.61,130.61,0,0,0-184.7.1L236,80,222.9,66.9a130.49,130.49,0,0,0-184.7-.2,130.49,130.49,0,0,0,.2,184.7L226.2,439.2a13.4,13.4,0,0,0,19,.1L433.4,251.8A130.85,130.85,0,0,0,433.6,67Z"/></g><g id="Capa_1" data-name="Capa 1"><path d="M433.6,67a130.61,130.61,0,0,0-184.7.1L236,80,222.9,66.9a130.49,130.49,0,0,0-184.7-.2,130.49,130.49,0,0,0,.2,184.7L226.2,439.2a13.4,13.4,0,0,0,19,.1L433.4,251.8A130.85,130.85,0,0,0,433.6,67ZM414.4,232.7l-178.7,178L57.4,232.4A103.52,103.52,0,1,1,203.8,86l22.6,22.6a13.46,13.46,0,0,0,19.1,0l22.4-22.4A103.59,103.59,0,0,1,414.4,232.7Z"/></g></svg>